<svg width="400" height="300" viewBox="0 0 400 300" xmlns="http://www.w3.org/2000/svg">
  <!-- Google Maps style background -->
  <defs>
    <linearGradient id="mapGradient" x1="0%" y1="0%" x2="100%" y2="100%">
      <stop offset="0%" style="stop-color:#4285f4;stop-opacity:0.8" />
      <stop offset="25%" style="stop-color:#34a853;stop-opacity:0.6" />
      <stop offset="50%" style="stop-color:#fbbc05;stop-opacity:0.4" />
      <stop offset="75%" style="stop-color:#ea4335;stop-opacity:0.6" />
      <stop offset="100%" style="stop-color:#4285f4;stop-opacity:0.8" />
    </linearGradient>
    
    <!-- Roads pattern -->
    <pattern id="roads" patternUnits="userSpaceOnUse" width="60" height="60">
      <rect width="60" height="60" fill="none"/>
      <path d="M0,30 L60,30" stroke="white" stroke-width="2" opacity="0.3"/>
      <path d="M30,0 L30,60" stroke="white" stroke-width="2" opacity="0.3"/>
    </pattern>
  </defs>
  
  <!-- Base map background -->
  <rect width="400" height="300" fill="url(#mapGradient)"/>
  
  <!-- Roads overlay -->
  <rect width="400" height="300" fill="url(#roads)"/>
  
  <!-- Simulated map areas -->
  <rect x="50" y="50" width="80" height="60" fill="#34a853" opacity="0.3" rx="5"/>
  <rect x="200" y="100" width="120" height="80" fill="#4285f4" opacity="0.3" rx="5"/>
  <rect x="100" y="180" width="90" height="70" fill="#fbbc05" opacity="0.3" rx="5"/>
  
  <!-- Central Google Maps pin -->
  <g transform="translate(200, 150)">
    <!-- Pin shadow -->
    <ellipse cx="0" cy="25" rx="8" ry="3" fill="black" opacity="0.3"/>
    
    <!-- Pin body -->
    <path d="M0,-20 C-8,-20 -15,-13 -15,-5 C-15,3 0,20 0,20 C0,20 15,3 15,-5 C15,-13 8,-20 0,-20 Z" 
          fill="#ea4335"/>
    
    <!-- Pin center dot -->
    <circle cx="0" cy="-5" r="5" fill="white"/>
    <circle cx="0" cy="-5" r="3" fill="#ea4335"/>
  </g>
  
  <!-- Additional smaller pins -->
  <g transform="translate(120, 80) scale(0.6)">
    <path d="M0,-20 C-8,-20 -15,-13 -15,-5 C-15,3 0,20 0,20 C0,20 15,3 15,-5 C15,-13 8,-20 0,-20 Z" 
          fill="#ea4335"/>
    <circle cx="0" cy="-5" r="3" fill="white"/>
  </g>
  
  <g transform="translate(280, 200) scale(0.6)">
    <path d="M0,-20 C-8,-20 -15,-13 -15,-5 C-15,3 0,20 0,20 C0,20 15,3 15,-5 C15,-13 8,-20 0,-20 Z" 
          fill="#ea4335"/>
    <circle cx="0" cy="-5" r="3" fill="white"/>
  </g>
</svg> 