<?xml version="1.0" encoding="utf-8"?>
<!DOCTYPE svg PUBLIC "-//W3C//DTD SVG 1.0//EN" "http://www.w3.org/TR/2001/REC-SVG-20010904/DTD/svg10.dtd">
<svg version="1.0" xmlns="http://www.w3.org/2000/svg" width="679px" height="201px" viewBox="0 0 679 201" preserveAspectRatio="xMidYMid meet">
 <g fill="none">
  <path d="M0 100.5 l0 -100.5 339.5 0 339.5 0 0 100.5 0 100.5 -339.5 0 -339.5 0 0 -100.5z m69.1 60.3 c5.3 -4.1 12.5 -9.2 16 -11.3 13.8 -8.3 30.5 -20 35.1 -24.6 15.7 -15.7 21.3 -38.5 14.4 -58.4 -6.5 -18.9 -19.1 -31.9 -37.6 -39.3 -16.3 -6.4 -27.8 -5.5 -45.8 3.4 -7.5 3.8 -10.5 6 -16.1 12 -13.8 14.7 -20.2 33.8 -16.8 49.9 2.3 10.6 5.2 17.2 11.4 25.9 l5.6 7.9 2.2 -6 c1.1 -3.2 3.7 -8.9 5.7 -12.5 3.5 -6.4 3.6 -6.7 2.3 -10.4 -2 -5.5 -1.9 -21.8 0.1 -27.7 2.1 -6.3 8.4 -13 15.2 -16.4 4.7 -2.3 7.2 -2.8 15.3 -3.1 16.4 -0.7 26.1 4.3 32.1 16.5 3.1 6.4 3.3 7.3 3.3 17.8 0 9.9 -0.3 11.5 -2.7 16.1 -2.9 5.5 -9.1 11.7 -14.1 13.9 -1.8 0.8 -5.8 2.2 -9 3 -6.5 1.9 -8.5 3.9 -13.9 15 -3.2 6.5 -12.6 29.7 -14.3 35.5 -0.7 2 -0.5 2.3 0.6 1.4 0.8 -0.6 5.7 -4.5 11 -8.6z m333.4 -38.3 c7.1 -1.9 14.4 -5.7 18.1 -9.6 3.7 -3.9 1.7 -3.6 -4.6 0.6 -7.1 4.8 -11.6 5.8 -24 5.3 -12 -0.5 -17.6 -2.7 -24.2 -9.5 -6.6 -6.8 -8.3 -12 -8.3 -25.8 0 -13.9 1.4 -18.2 8.6 -26 6.8 -7.3 12.5 -9.8 24.1 -10.3 10.9 -0.5 17.4 1.1 24.5 6 5 3.3 6.8 2 2.1 -1.5 -8.6 -6.5 -20.4 -9.9 -29.1 -8.6 -7.7 1.3 -17.1 6.2 -22.8 12 -9.1 9.3 -13.9 22.6 -12 33.3 2.2 12.3 10.8 24.8 20.5 29.8 5.5 2.9 14.4 5.7 18.1 5.7 1.7 0.1 5.7 -0.6 9 -1.4z m103.2 -1.9 c9.5 -4.9 15.8 -13.5 16.9 -23.2 1.7 -14.6 -13.4 -30.5 -28.9 -30.4 -8.9 0.1 -19.9 7.6 -24.4 16.8 -7.3 14.8 0.6 32.5 17 38.4 6.5 2.3 12.8 1.8 19.4 -1.6z m63 0.5 l3.5 -1.8 -8.3 0.4 c-10 0.5 -14.4 -1.2 -17.1 -6.7 -1.5 -3 -1.8 -6.5 -1.8 -23.8 0 -17.7 -0.2 -20.3 -1.6 -20.9 -0.9 -0.3 -2 0 -2.5 0.8 -0.5 0.8 -0.8 9.9 -0.7 20.4 0.3 18.7 0.3 19.1 3.1 23.7 5.8 9.9 15.6 13 25.4 7.9z m72.2 -0.5 c2.7 -1.4 5.2 -3 5.5 -3.5 0.3 -0.5 -1.1 0 -3.1 1 -5.1 2.6 -18.2 2.6 -23.9 0 -6.7 -3.1 -11.1 -9.9 -12 -18.8 -0.9 -8.3 1.1 -16.6 4.8 -20.9 5.1 -5.8 9.4 -7.4 19.6 -7.4 8.1 0 9.2 0.2 13.6 3 5.7 3.7 8.6 9.4 9.4 18.6 0.6 7.5 -1 14.5 -4.4 19.7 l-2.4 3.7 2.8 0 c2.4 0 3.1 0.6 3.8 3.2 0.6 1.8 1.7 3.4 2.7 3.6 1.6 0.3 1.7 -2.4 1.7 -39.2 0 -26.3 -0.3 -39.7 -1 -40.1 -1.9 -1.2 -4.2 1.7 -3.5 4.4 0.4 1.4 0.3 7.8 -0.1 14.3 l-0.7 11.8 -3.3 0 c-1.9 0 -4.9 -1.1 -7 -2.5 -7.4 -5 -15.2 -5.7 -23 -2.1 -9.7 4.5 -16.5 14.2 -17.2 24.8 -0.4 4.8 0.1 6.7 2.5 12 3.7 7.8 7.1 11.3 14.8 15 7.2 3.5 12.5 3.3 20.4 -0.6z m-445.9 -12.6 l0.5 -14.5 13 -0.5 c10 -0.5 13.8 -1 16.5 -2.4 6.3 -3.4 9.6 -6.5 12.5 -11.8 6.8 -12.5 0.7 -27.6 -13.2 -32.8 -4.6 -1.7 -7.8 -2 -21.7 -2 -14 0 -16.5 0.2 -17 1.6 -0.3 0.9 -0.6 18.4 -0.6 38.9 0 28.9 0.3 37.5 1.3 37.9 0.6 0.3 2.8 0.4 4.7 0.3 l3.5 -0.2 0.5 -14.5z m71.2 -4.5 c0.5 -10.4 0.5 -22.7 0.2 -27.2 l-0.6 -8.3 -3.8 0 c-2.5 0 -4 0.5 -4.4 1.6 -0.3 0.9 -0.6 12.7 -0.6 26.3 0 26.9 0.1 27.4 5.5 26.9 l3 -0.3 0.7 -19z m28.6 18.3 c0.8 -0.8 1.2 -6.7 1.2 -20 0 -20.9 0.6 -23.5 6 -26.3 3.8 -2 16.1 -2 19.9 0 4.9 2.5 5.6 6 5.3 26.6 -0.3 20.4 0 21.4 5.5 20.7 l2.8 -0.3 0.3 -17 c0.4 -20.4 -0.1 -24 -3.5 -29.3 -5.6 -8.7 -16.5 -11.5 -25.9 -6.7 -6.1 3.1 -10.4 3.3 -11.1 0.4 -0.5 -1.6 -1.2 -1.9 -4.2 -1.7 l-3.6 0.3 -0.3 26 c-0.1 14.3 0 26.5 0.3 27.2 0.6 1.6 5.7 1.7 7.3 0.1z m153 -38.3 c0.1 -24.1 -0.1 -39.2 -0.7 -39.8 -0.7 -0.7 -1.6 -0.6 -2.6 0.3 -1.3 1.1 -1.5 6.2 -1.5 38.9 0 37.8 0.3 40.8 3.5 39.8 0.6 -0.2 1.1 -13.5 1.3 -39.2z m137.2 11.9 l0 -27.5 -2.2 0.3 c-2.3 0.3 -2.3 0.5 -2.8 21.4 l-0.5 21.1 -2.8 3.6 -2.8 3.7 2.9 0 c2.3 0 3.1 0.5 3.6 2.5 0.4 1.6 1.3 2.5 2.6 2.5 1.9 0 2 -0.8 2 -27.6z m-319.1 -46 c2.3 -2.9 1.6 -5.5 -1.9 -7.4 -4.8 -2.6 -9.3 4.7 -5 8.2 3 2.4 4.5 2.3 6.9 -0.8z"/>
  <path d="M484.5 118.8 c-5 -1.7 -9.2 -5.5 -11.5 -10.3 -1.9 -3.9 -2.1 -5.8 -1.8 -14.4 0.3 -9.2 0.5 -10.3 3.3 -14.3 4.8 -6.7 9.3 -8.8 19.5 -8.8 10.6 0 16 2.3 20.5 8.8 2.7 4 3 5.2 3.3 13.8 0.4 10.7 -0.5 14.1 -5.2 19.3 -4.7 5 -9.9 7.1 -18.1 7 -3.8 0 -8.3 -0.5 -10 -1.1z"/>
  <path d="M195 68.5 l0 -16.5 13 0 c19.7 0 23 2.4 23 16.7 0 7.1 -1.5 11 -5.6 14.2 -2.4 1.9 -4 2.1 -16.5 2.1 l-13.9 0 0 -16.5z"/>
 </g>
 <g fill="#67c5e7">
  <path d="M382 125.1 c-12.7 -4.1 -20.7 -10.7 -26.1 -21.6 -13.3 -27.1 2.8 -58.9 32.2 -63.6 8 -1.3 17.5 0.2 25.6 4 6.2 3 13.3 8.5 13.3 10.4 0 1.3 -5 6.7 -6.2 6.7 -0.4 0 -3.1 -1.7 -5.9 -3.9 -17.3 -13.1 -41.2 -7 -50.2 12.7 -3.1 6.8 -3 20.7 0.1 27.7 2.9 6.3 8.3 11.9 14.7 15.3 4.5 2.4 6.1 2.7 15 2.7 10.9 0 14.8 -1.3 21.9 -7.5 1.8 -1.7 4 -3 4.8 -3 1.7 0 6.8 4.4 6.8 5.9 0 0.5 -1.7 2.6 -3.7 4.5 -10.7 10.1 -28.5 14.2 -42.3 9.7z"/>
  <path d="M483.3 125.2 c-7.3 -2.6 -13.3 -7.9 -16.8 -14.8 -2.7 -5.2 -3 -6.9 -3 -14.9 0 -7.9 0.4 -9.7 2.8 -14.7 7.1 -14.4 24.4 -20.6 40.4 -14.7 7.6 2.9 14.3 9.6 17.3 17.5 4.4 11.6 1.5 25.7 -6.8 33.9 -8.7 8.6 -22.6 11.7 -33.9 7.7z m19.2 -10.1 c4.7 -2.2 9.7 -7.3 11.5 -11.8 0.7 -2 1.1 -5.9 0.8 -9.8 -0.7 -11.8 -9 -19.5 -20.8 -19.5 -6.9 0 -12.3 2.9 -16.4 8.8 -4.2 5.9 -4.9 15.9 -1.6 22.7 4.8 9.8 16.7 14.1 26.5 9.6z"/>
  <path d="M551.5 125.8 c-5 -1.8 -8.4 -4.7 -11.2 -9.6 -2.8 -4.7 -2.8 -4.9 -3.1 -25.6 -0.2 -11.5 -0.1 -22 0.3 -23.3 0.5 -2.2 1 -2.4 5.3 -2.1 l4.7 0.3 0.5 21.5 c0.6 24.1 1 25.9 7.5 28.6 7 2.9 14.5 1 18.6 -4.7 2.3 -3.3 2.4 -4.2 2.9 -24.4 l0.5 -21 5.3 -0.3 5.2 -0.3 0 30.5 0 30.6 -5 0 c-4.5 0 -5 -0.3 -5.6 -2.5 -0.6 -2.3 -2.4 -3.6 -2.4 -1.7 0 3.3 -17.4 6.3 -23.5 4z"/>
  <path d="M617.5 124.2 c-7.7 -3.7 -11.1 -7.2 -14.7 -15 -2.7 -5.7 -3 -7 -2.6 -15 0.4 -10 2.6 -15.6 8.5 -21.7 9.5 -9.7 26.6 -11.5 37.8 -3.9 2.1 1.4 3.9 2.3 4.2 2 0.3 -0.2 0.5 -6.8 0.6 -14.5 0 -15.8 0.3 -16.4 6.4 -15.9 l3.8 0.3 0.3 42.8 0.2 42.8 -4.7 -0.3 c-4.3 -0.3 -4.7 -0.5 -5.8 -3.7 -0.7 -2.3 -1.4 -3.1 -1.9 -2.3 -1.9 3.1 -11.1 6.5 -18.6 6.9 -6.7 0.4 -8.1 0.1 -13.5 -2.5z m25.3 -10.4 c8.2 -5.5 11.2 -18.7 6.5 -29 -5.9 -12.9 -24.1 -14.7 -34 -3.4 -3.6 4 -5.6 11.8 -4.7 17.8 1 5.9 6.1 12.9 11.4 15.6 6.2 3.2 15 2.8 20.8 -1z"/>
  <path d="M183.3 125.4 c-1 -0.4 -1.3 -9.6 -1.3 -40.9 0 -22.2 0.3 -41 0.6 -41.9 0.5 -1.4 3.2 -1.6 20 -1.6 16.9 0 20 0.3 24.7 2 10.8 4.1 16.2 12.4 16.2 25.5 0 7 -0.4 8.7 -2.9 13.3 -3 5.3 -6.3 8.4 -12.6 11.8 -2.7 1.4 -6.5 1.9 -16.5 2.4 l-13 0.5 -0.5 14.5 -0.5 14.5 -6.5 0.2 c-3.6 0.1 -7.1 -0.1 -7.7 -0.3z m39.1 -45.5 c7.8 -6.1 7.5 -18.9 -0.5 -22.9 -3 -1.6 -5.9 -2 -13.9 -2 l-10 0 0 13.5 0 13.5 10.9 0 c9.5 0 11.2 -0.3 13.5 -2.1z"/>
  <path d="M255.2 124.8 c-1.4 -1.4 -1.7 -56.4 -0.3 -58.6 0.5 -0.9 2.8 -1.2 7.7 -1 l6.9 0.3 0 28 c0 15.4 -0.3 29 -0.7 30.3 -0.7 1.9 -1.4 2.2 -6.6 2.2 -3.2 0 -6.3 -0.5 -7 -1.2z"/>
  <path d="M284.5 124.7 c-0.3 -0.7 -0.4 -14.3 -0.3 -30.2 l0.3 -29 6.6 -0.3 c5.9 -0.3 6.7 -0.1 7.2 1.7 0.4 1.8 0.6 1.8 5.6 -0.6 13.5 -6.7 30.3 -0.6 34 12.4 1.1 3.9 1.8 44.4 0.8 46.1 -1.2 1.7 -12.1 1.6 -13.6 -0.2 -0.8 -1 -1.1 -7.1 -1 -20.3 0.3 -20.7 -0.4 -23.8 -5.6 -26.1 -3.6 -1.7 -10 -1.5 -13.5 0.3 -5.4 2.8 -6 5.4 -6 26.3 0 13.3 -0.4 19.2 -1.2 20 -1.6 1.6 -12.7 1.6 -13.3 -0.1z"/>
  <path d="M441.2 124.8 c-0.9 -0.9 -1.2 -10.7 -1.2 -41.9 0 -45.1 -0.3 -43.3 6.7 -42.7 l3.8 0.3 0 42.5 0 42.5 -4 0.3 c-2.3 0.2 -4.6 -0.3 -5.3 -1z"/>
  <path d="M257.8 54.4 c-7 -3.7 -6 -13.9 1.6 -16.4 9.2 -3 15.6 8.2 8.7 15.1 -3.2 3.2 -6.2 3.6 -10.3 1.3z"/>
 </g>
 <g fill="#67c5e7">
  <path d="M51.8 177.4 c-1.6 -1.5 9.5 -32.9 17 -47.9 5.4 -11.1 7.4 -13.1 13.9 -15 8.3 -2.2 11.7 -3.9 16.3 -8.1 6.7 -6 9.4 -12.4 9.4 -21.9 0.1 -7.1 -0.3 -8.8 -3.2 -14.8 -5.7 -11.5 -16.2 -17.4 -29.3 -16.5 -12.8 1 -23.8 9 -27.5 20 -2.1 6.4 -1.5 18.6 1.2 24.1 l1.8 3.8 -5.1 9.7 c-2.8 5.3 -5.8 12.1 -6.8 14.9 -0.9 2.9 -2.1 5.6 -2.7 5.9 -3 1.9 -16.3 -17.6 -19.8 -29.1 -2 -6.5 -2.5 -10 -2.4 -19 0.1 -17.8 5.3 -30.8 17.5 -43.9 5.6 -6 8.6 -8.2 16.1 -12 5.1 -2.5 12 -5.3 15.3 -6.1 6.8 -1.7 19.8 -1.9 26.5 -0.5 11.7 2.7 23.8 9.2 32.2 17.5 7.1 7 11.8 14.6 15.5 25 2.4 7.1 2.7 9.4 2.7 20.5 0 11.1 -0.3 13.4 -2.7 20.3 -6.5 18.6 -14.7 26.6 -49.2 48 -4.9 3 -14.6 10.1 -21.5 15.6 -11.9 9.6 -13.9 10.8 -15.2 9.5z"/>
 </g>
</svg>